<mxfile host="app.diagrams.net" modified="2024-05-21T11:29:39.305Z" agent="Mozilla/5.0 (Windows NT 10.0; Win64; x64) AppleWebKit/537.36 (KHTML, like Gecko) Chrome/124.0.0.0 Safari/537.36" etag="5cj8jpbs8RaqDYFwOYWI" version="24.4.4" type="device">
  <diagram id="C5RBs43oDa-KdzZeNtuy" name="Page-1">
    <mxGraphModel dx="3520" dy="1736" grid="1" gridSize="10" guides="1" tooltips="1" connect="1" arrows="1" fold="1" page="1" pageScale="1" pageWidth="827" pageHeight="1169" math="0" shadow="0">
      <root>
        <mxCell id="WIyWlLk6GJQsqaUBKTNV-0" />
        <mxCell id="WIyWlLk6GJQsqaUBKTNV-1" parent="WIyWlLk6GJQsqaUBKTNV-0" />
        <mxCell id="1qIj2vhqTRPH5F1boKcA-11" style="edgeStyle=orthogonalEdgeStyle;rounded=0;orthogonalLoop=1;jettySize=auto;html=1;entryX=0.5;entryY=1;entryDx=0;entryDy=0;" edge="1" parent="WIyWlLk6GJQsqaUBKTNV-1" source="1qIj2vhqTRPH5F1boKcA-2" target="1qIj2vhqTRPH5F1boKcA-3">
          <mxGeometry relative="1" as="geometry" />
        </mxCell>
        <mxCell id="1qIj2vhqTRPH5F1boKcA-15" style="edgeStyle=orthogonalEdgeStyle;rounded=0;orthogonalLoop=1;jettySize=auto;html=1;exitX=1;exitY=0;exitDx=0;exitDy=0;entryX=0.5;entryY=1;entryDx=0;entryDy=0;" edge="1" parent="WIyWlLk6GJQsqaUBKTNV-1" source="1qIj2vhqTRPH5F1boKcA-2" target="1qIj2vhqTRPH5F1boKcA-5">
          <mxGeometry relative="1" as="geometry" />
        </mxCell>
        <mxCell id="1qIj2vhqTRPH5F1boKcA-16" style="edgeStyle=orthogonalEdgeStyle;rounded=0;orthogonalLoop=1;jettySize=auto;html=1;entryX=0.5;entryY=1;entryDx=0;entryDy=0;" edge="1" parent="WIyWlLk6GJQsqaUBKTNV-1" source="1qIj2vhqTRPH5F1boKcA-2" target="1qIj2vhqTRPH5F1boKcA-6">
          <mxGeometry relative="1" as="geometry" />
        </mxCell>
        <mxCell id="1qIj2vhqTRPH5F1boKcA-19" style="edgeStyle=orthogonalEdgeStyle;rounded=0;orthogonalLoop=1;jettySize=auto;html=1;exitX=0;exitY=0.25;exitDx=0;exitDy=0;" edge="1" parent="WIyWlLk6GJQsqaUBKTNV-1" source="1qIj2vhqTRPH5F1boKcA-2">
          <mxGeometry relative="1" as="geometry">
            <mxPoint x="560" y="170" as="targetPoint" />
          </mxGeometry>
        </mxCell>
        <mxCell id="1qIj2vhqTRPH5F1boKcA-20" style="edgeStyle=orthogonalEdgeStyle;rounded=0;orthogonalLoop=1;jettySize=auto;html=1;exitX=1;exitY=0.25;exitDx=0;exitDy=0;entryX=0.5;entryY=1;entryDx=0;entryDy=0;" edge="1" parent="WIyWlLk6GJQsqaUBKTNV-1" source="1qIj2vhqTRPH5F1boKcA-2" target="1qIj2vhqTRPH5F1boKcA-17">
          <mxGeometry relative="1" as="geometry" />
        </mxCell>
        <mxCell id="1qIj2vhqTRPH5F1boKcA-2" value="PRODUCT" style="rounded=0;whiteSpace=wrap;html=1;" vertex="1" parent="WIyWlLk6GJQsqaUBKTNV-1">
          <mxGeometry x="690" y="350" width="120" height="60" as="geometry" />
        </mxCell>
        <mxCell id="1qIj2vhqTRPH5F1boKcA-3" value="PRODUCT_ID" style="ellipse;whiteSpace=wrap;html=1;" vertex="1" parent="WIyWlLk6GJQsqaUBKTNV-1">
          <mxGeometry x="400" y="200" width="120" height="80" as="geometry" />
        </mxCell>
        <mxCell id="1qIj2vhqTRPH5F1boKcA-4" value="PRODUCT_NAME" style="ellipse;whiteSpace=wrap;html=1;" vertex="1" parent="WIyWlLk6GJQsqaUBKTNV-1">
          <mxGeometry x="590" y="200" width="120" height="80" as="geometry" />
        </mxCell>
        <mxCell id="1qIj2vhqTRPH5F1boKcA-5" value="ACT_PRICE" style="ellipse;whiteSpace=wrap;html=1;" vertex="1" parent="WIyWlLk6GJQsqaUBKTNV-1">
          <mxGeometry x="770" y="200" width="120" height="80" as="geometry" />
        </mxCell>
        <mxCell id="1qIj2vhqTRPH5F1boKcA-6" value="CURR_PRICE" style="ellipse;whiteSpace=wrap;html=1;" vertex="1" parent="WIyWlLk6GJQsqaUBKTNV-1">
          <mxGeometry x="960" y="200" width="120" height="80" as="geometry" />
        </mxCell>
        <mxCell id="1qIj2vhqTRPH5F1boKcA-14" style="edgeStyle=orthogonalEdgeStyle;rounded=0;orthogonalLoop=1;jettySize=auto;html=1;exitX=0;exitY=0;exitDx=0;exitDy=0;entryX=0.446;entryY=1.043;entryDx=0;entryDy=0;entryPerimeter=0;" edge="1" parent="WIyWlLk6GJQsqaUBKTNV-1" source="1qIj2vhqTRPH5F1boKcA-2" target="1qIj2vhqTRPH5F1boKcA-4">
          <mxGeometry relative="1" as="geometry" />
        </mxCell>
        <mxCell id="1qIj2vhqTRPH5F1boKcA-17" value="COUNT" style="ellipse;whiteSpace=wrap;html=1;" vertex="1" parent="WIyWlLk6GJQsqaUBKTNV-1">
          <mxGeometry x="860" y="80" width="120" height="80" as="geometry" />
        </mxCell>
        <mxCell id="1qIj2vhqTRPH5F1boKcA-18" value="RETURNABLE" style="ellipse;whiteSpace=wrap;html=1;" vertex="1" parent="WIyWlLk6GJQsqaUBKTNV-1">
          <mxGeometry x="500" y="80" width="120" height="80" as="geometry" />
        </mxCell>
        <mxCell id="1qIj2vhqTRPH5F1boKcA-25" style="edgeStyle=orthogonalEdgeStyle;rounded=0;orthogonalLoop=1;jettySize=auto;html=1;entryX=0.5;entryY=1;entryDx=0;entryDy=0;" edge="1" parent="WIyWlLk6GJQsqaUBKTNV-1" source="1qIj2vhqTRPH5F1boKcA-21" target="1qIj2vhqTRPH5F1boKcA-23">
          <mxGeometry relative="1" as="geometry" />
        </mxCell>
        <mxCell id="1qIj2vhqTRPH5F1boKcA-26" style="edgeStyle=orthogonalEdgeStyle;rounded=0;orthogonalLoop=1;jettySize=auto;html=1;entryX=0.5;entryY=1;entryDx=0;entryDy=0;" edge="1" parent="WIyWlLk6GJQsqaUBKTNV-1" source="1qIj2vhqTRPH5F1boKcA-21" target="1qIj2vhqTRPH5F1boKcA-24">
          <mxGeometry relative="1" as="geometry" />
        </mxCell>
        <mxCell id="1qIj2vhqTRPH5F1boKcA-27" style="edgeStyle=orthogonalEdgeStyle;rounded=0;orthogonalLoop=1;jettySize=auto;html=1;entryX=0.5;entryY=1;entryDx=0;entryDy=0;" edge="1" parent="WIyWlLk6GJQsqaUBKTNV-1" source="1qIj2vhqTRPH5F1boKcA-21" target="1qIj2vhqTRPH5F1boKcA-22">
          <mxGeometry relative="1" as="geometry" />
        </mxCell>
        <mxCell id="1qIj2vhqTRPH5F1boKcA-60" style="edgeStyle=orthogonalEdgeStyle;rounded=0;orthogonalLoop=1;jettySize=auto;html=1;entryX=0.5;entryY=0;entryDx=0;entryDy=0;" edge="1" parent="WIyWlLk6GJQsqaUBKTNV-1" source="1qIj2vhqTRPH5F1boKcA-21" target="1qIj2vhqTRPH5F1boKcA-59">
          <mxGeometry relative="1" as="geometry">
            <Array as="points">
              <mxPoint x="1620" y="410" />
              <mxPoint x="2180" y="410" />
            </Array>
          </mxGeometry>
        </mxCell>
        <mxCell id="1qIj2vhqTRPH5F1boKcA-21" value="ORDER" style="rounded=0;whiteSpace=wrap;html=1;" vertex="1" parent="WIyWlLk6GJQsqaUBKTNV-1">
          <mxGeometry x="1560" y="330" width="120" height="60" as="geometry" />
        </mxCell>
        <mxCell id="1qIj2vhqTRPH5F1boKcA-22" value="ORDER_ID" style="ellipse;whiteSpace=wrap;html=1;" vertex="1" parent="WIyWlLk6GJQsqaUBKTNV-1">
          <mxGeometry x="1310" y="190" width="120" height="80" as="geometry" />
        </mxCell>
        <mxCell id="1qIj2vhqTRPH5F1boKcA-23" value="RETURNABLE" style="ellipse;whiteSpace=wrap;html=1;" vertex="1" parent="WIyWlLk6GJQsqaUBKTNV-1">
          <mxGeometry x="1560" y="190" width="120" height="80" as="geometry" />
        </mxCell>
        <mxCell id="1qIj2vhqTRPH5F1boKcA-24" value="PRICE" style="ellipse;whiteSpace=wrap;html=1;" vertex="1" parent="WIyWlLk6GJQsqaUBKTNV-1">
          <mxGeometry x="1810" y="190" width="120" height="80" as="geometry" />
        </mxCell>
        <mxCell id="1qIj2vhqTRPH5F1boKcA-37" value="" style="edgeStyle=orthogonalEdgeStyle;rounded=0;orthogonalLoop=1;jettySize=auto;html=1;" edge="1" parent="WIyWlLk6GJQsqaUBKTNV-1" source="1qIj2vhqTRPH5F1boKcA-28" target="1qIj2vhqTRPH5F1boKcA-30">
          <mxGeometry relative="1" as="geometry" />
        </mxCell>
        <mxCell id="1qIj2vhqTRPH5F1boKcA-38" style="edgeStyle=orthogonalEdgeStyle;rounded=0;orthogonalLoop=1;jettySize=auto;html=1;exitX=0.75;exitY=1;exitDx=0;exitDy=0;entryX=0.5;entryY=0;entryDx=0;entryDy=0;" edge="1" parent="WIyWlLk6GJQsqaUBKTNV-1" source="1qIj2vhqTRPH5F1boKcA-28" target="1qIj2vhqTRPH5F1boKcA-31">
          <mxGeometry relative="1" as="geometry" />
        </mxCell>
        <mxCell id="1qIj2vhqTRPH5F1boKcA-40" style="edgeStyle=orthogonalEdgeStyle;rounded=0;orthogonalLoop=1;jettySize=auto;html=1;exitX=0.25;exitY=1;exitDx=0;exitDy=0;entryX=0.5;entryY=0;entryDx=0;entryDy=0;" edge="1" parent="WIyWlLk6GJQsqaUBKTNV-1" source="1qIj2vhqTRPH5F1boKcA-28" target="1qIj2vhqTRPH5F1boKcA-29">
          <mxGeometry relative="1" as="geometry" />
        </mxCell>
        <mxCell id="1qIj2vhqTRPH5F1boKcA-41" style="edgeStyle=orthogonalEdgeStyle;rounded=0;orthogonalLoop=1;jettySize=auto;html=1;exitX=0;exitY=1;exitDx=0;exitDy=0;entryX=0.5;entryY=0;entryDx=0;entryDy=0;" edge="1" parent="WIyWlLk6GJQsqaUBKTNV-1" source="1qIj2vhqTRPH5F1boKcA-28" target="1qIj2vhqTRPH5F1boKcA-33">
          <mxGeometry relative="1" as="geometry">
            <Array as="points">
              <mxPoint x="1560" y="830" />
              <mxPoint x="1200" y="830" />
            </Array>
          </mxGeometry>
        </mxCell>
        <mxCell id="1qIj2vhqTRPH5F1boKcA-42" style="edgeStyle=orthogonalEdgeStyle;rounded=0;orthogonalLoop=1;jettySize=auto;html=1;exitX=1;exitY=0.75;exitDx=0;exitDy=0;entryX=0.5;entryY=0;entryDx=0;entryDy=0;" edge="1" parent="WIyWlLk6GJQsqaUBKTNV-1" source="1qIj2vhqTRPH5F1boKcA-28" target="1qIj2vhqTRPH5F1boKcA-36">
          <mxGeometry relative="1" as="geometry" />
        </mxCell>
        <mxCell id="1qIj2vhqTRPH5F1boKcA-46" style="edgeStyle=orthogonalEdgeStyle;rounded=0;orthogonalLoop=1;jettySize=auto;html=1;exitX=0;exitY=0.75;exitDx=0;exitDy=0;entryX=0.5;entryY=0;entryDx=0;entryDy=0;" edge="1" parent="WIyWlLk6GJQsqaUBKTNV-1" source="1qIj2vhqTRPH5F1boKcA-28" target="1qIj2vhqTRPH5F1boKcA-34">
          <mxGeometry relative="1" as="geometry" />
        </mxCell>
        <mxCell id="1qIj2vhqTRPH5F1boKcA-28" value="REFUND" style="rounded=0;whiteSpace=wrap;html=1;" vertex="1" parent="WIyWlLk6GJQsqaUBKTNV-1">
          <mxGeometry x="1560" y="760" width="120" height="60" as="geometry" />
        </mxCell>
        <mxCell id="1qIj2vhqTRPH5F1boKcA-29" value="CREATEDDATE" style="ellipse;whiteSpace=wrap;html=1;" vertex="1" parent="WIyWlLk6GJQsqaUBKTNV-1">
          <mxGeometry x="1350" y="880" width="120" height="80" as="geometry" />
        </mxCell>
        <mxCell id="1qIj2vhqTRPH5F1boKcA-30" value="CREATEDBY" style="ellipse;whiteSpace=wrap;html=1;" vertex="1" parent="WIyWlLk6GJQsqaUBKTNV-1">
          <mxGeometry x="1560" y="880" width="120" height="80" as="geometry" />
        </mxCell>
        <mxCell id="1qIj2vhqTRPH5F1boKcA-31" value="CLOSEDDATE" style="ellipse;whiteSpace=wrap;html=1;" vertex="1" parent="WIyWlLk6GJQsqaUBKTNV-1">
          <mxGeometry x="1770" y="880" width="120" height="80" as="geometry" />
        </mxCell>
        <mxCell id="1qIj2vhqTRPH5F1boKcA-32" value="REASON" style="ellipse;whiteSpace=wrap;html=1;" vertex="1" parent="WIyWlLk6GJQsqaUBKTNV-1">
          <mxGeometry x="1980" y="880" width="120" height="80" as="geometry" />
        </mxCell>
        <mxCell id="1qIj2vhqTRPH5F1boKcA-33" value="REFUND_ID" style="ellipse;whiteSpace=wrap;html=1;" vertex="1" parent="WIyWlLk6GJQsqaUBKTNV-1">
          <mxGeometry x="1140" y="880" width="120" height="80" as="geometry" />
        </mxCell>
        <mxCell id="1qIj2vhqTRPH5F1boKcA-89" style="edgeStyle=orthogonalEdgeStyle;rounded=0;orthogonalLoop=1;jettySize=auto;html=1;entryX=0.5;entryY=0;entryDx=0;entryDy=0;" edge="1" parent="WIyWlLk6GJQsqaUBKTNV-1" source="1qIj2vhqTRPH5F1boKcA-34" target="1qIj2vhqTRPH5F1boKcA-77">
          <mxGeometry relative="1" as="geometry" />
        </mxCell>
        <mxCell id="1qIj2vhqTRPH5F1boKcA-34" value="REFUNDSTATUS" style="ellipse;whiteSpace=wrap;html=1;" vertex="1" parent="WIyWlLk6GJQsqaUBKTNV-1">
          <mxGeometry x="1270" y="1010" width="120" height="80" as="geometry" />
        </mxCell>
        <mxCell id="1qIj2vhqTRPH5F1boKcA-75" style="edgeStyle=orthogonalEdgeStyle;rounded=0;orthogonalLoop=1;jettySize=auto;html=1;entryX=0.5;entryY=0;entryDx=0;entryDy=0;" edge="1" parent="WIyWlLk6GJQsqaUBKTNV-1" source="1qIj2vhqTRPH5F1boKcA-35" target="1qIj2vhqTRPH5F1boKcA-73">
          <mxGeometry relative="1" as="geometry">
            <Array as="points">
              <mxPoint x="1770" y="1170" />
              <mxPoint x="1770" y="1280" />
            </Array>
          </mxGeometry>
        </mxCell>
        <mxCell id="1qIj2vhqTRPH5F1boKcA-76" style="edgeStyle=orthogonalEdgeStyle;rounded=0;orthogonalLoop=1;jettySize=auto;html=1;entryX=0.5;entryY=0;entryDx=0;entryDy=0;" edge="1" parent="WIyWlLk6GJQsqaUBKTNV-1" source="1qIj2vhqTRPH5F1boKcA-35" target="1qIj2vhqTRPH5F1boKcA-74">
          <mxGeometry relative="1" as="geometry" />
        </mxCell>
        <mxCell id="1qIj2vhqTRPH5F1boKcA-80" style="edgeStyle=orthogonalEdgeStyle;rounded=0;orthogonalLoop=1;jettySize=auto;html=1;entryX=0.5;entryY=0;entryDx=0;entryDy=0;" edge="1" parent="WIyWlLk6GJQsqaUBKTNV-1" source="1qIj2vhqTRPH5F1boKcA-35" target="1qIj2vhqTRPH5F1boKcA-78">
          <mxGeometry relative="1" as="geometry" />
        </mxCell>
        <mxCell id="1qIj2vhqTRPH5F1boKcA-35" value="STATUS" style="ellipse;whiteSpace=wrap;html=1;" vertex="1" parent="WIyWlLk6GJQsqaUBKTNV-1">
          <mxGeometry x="1910" y="1120" width="120" height="80" as="geometry" />
        </mxCell>
        <mxCell id="1qIj2vhqTRPH5F1boKcA-36" value="CLOSEDBY" style="ellipse;whiteSpace=wrap;html=1;" vertex="1" parent="WIyWlLk6GJQsqaUBKTNV-1">
          <mxGeometry x="1654" y="1010" width="120" height="80" as="geometry" />
        </mxCell>
        <mxCell id="1qIj2vhqTRPH5F1boKcA-39" style="edgeStyle=orthogonalEdgeStyle;rounded=0;orthogonalLoop=1;jettySize=auto;html=1;exitX=1;exitY=1;exitDx=0;exitDy=0;entryX=0.394;entryY=0.012;entryDx=0;entryDy=0;entryPerimeter=0;" edge="1" parent="WIyWlLk6GJQsqaUBKTNV-1" source="1qIj2vhqTRPH5F1boKcA-28" target="1qIj2vhqTRPH5F1boKcA-32">
          <mxGeometry relative="1" as="geometry">
            <Array as="points">
              <mxPoint x="1680" y="830" />
              <mxPoint x="2027" y="830" />
            </Array>
          </mxGeometry>
        </mxCell>
        <mxCell id="1qIj2vhqTRPH5F1boKcA-47" style="edgeStyle=orthogonalEdgeStyle;rounded=0;orthogonalLoop=1;jettySize=auto;html=1;exitX=1;exitY=0.5;exitDx=0;exitDy=0;entryX=0.295;entryY=0.001;entryDx=0;entryDy=0;entryPerimeter=0;" edge="1" parent="WIyWlLk6GJQsqaUBKTNV-1">
          <mxGeometry relative="1" as="geometry">
            <mxPoint x="1697.3" y="790" as="sourcePoint" />
            <mxPoint x="1962.7" y="1120.08" as="targetPoint" />
          </mxGeometry>
        </mxCell>
        <mxCell id="1qIj2vhqTRPH5F1boKcA-54" value="" style="edgeStyle=orthogonalEdgeStyle;rounded=0;orthogonalLoop=1;jettySize=auto;html=1;" edge="1" parent="WIyWlLk6GJQsqaUBKTNV-1" source="1qIj2vhqTRPH5F1boKcA-48" target="1qIj2vhqTRPH5F1boKcA-50">
          <mxGeometry relative="1" as="geometry" />
        </mxCell>
        <mxCell id="1qIj2vhqTRPH5F1boKcA-55" style="edgeStyle=orthogonalEdgeStyle;rounded=0;orthogonalLoop=1;jettySize=auto;html=1;exitX=0.75;exitY=1;exitDx=0;exitDy=0;entryX=0.5;entryY=0;entryDx=0;entryDy=0;" edge="1" parent="WIyWlLk6GJQsqaUBKTNV-1" source="1qIj2vhqTRPH5F1boKcA-48" target="1qIj2vhqTRPH5F1boKcA-53">
          <mxGeometry relative="1" as="geometry">
            <Array as="points">
              <mxPoint x="810" y="850" />
            </Array>
          </mxGeometry>
        </mxCell>
        <mxCell id="1qIj2vhqTRPH5F1boKcA-57" style="edgeStyle=orthogonalEdgeStyle;rounded=0;orthogonalLoop=1;jettySize=auto;html=1;exitX=0;exitY=0.75;exitDx=0;exitDy=0;entryX=0.5;entryY=0;entryDx=0;entryDy=0;" edge="1" parent="WIyWlLk6GJQsqaUBKTNV-1" source="1qIj2vhqTRPH5F1boKcA-48">
          <mxGeometry relative="1" as="geometry">
            <mxPoint x="580" y="1020" as="targetPoint" />
          </mxGeometry>
        </mxCell>
        <mxCell id="1qIj2vhqTRPH5F1boKcA-64" style="edgeStyle=orthogonalEdgeStyle;rounded=0;orthogonalLoop=1;jettySize=auto;html=1;" edge="1" parent="WIyWlLk6GJQsqaUBKTNV-1" source="1qIj2vhqTRPH5F1boKcA-48">
          <mxGeometry relative="1" as="geometry">
            <mxPoint x="1040" y="630.0000000000002" as="targetPoint" />
            <Array as="points">
              <mxPoint x="700" y="630" />
            </Array>
          </mxGeometry>
        </mxCell>
        <mxCell id="1qIj2vhqTRPH5F1boKcA-72" style="edgeStyle=orthogonalEdgeStyle;rounded=0;orthogonalLoop=1;jettySize=auto;html=1;entryX=0.5;entryY=0;entryDx=0;entryDy=0;" edge="1" parent="WIyWlLk6GJQsqaUBKTNV-1" source="1qIj2vhqTRPH5F1boKcA-48" target="1qIj2vhqTRPH5F1boKcA-49">
          <mxGeometry relative="1" as="geometry" />
        </mxCell>
        <mxCell id="1qIj2vhqTRPH5F1boKcA-48" value="MEMBER" style="rounded=0;whiteSpace=wrap;html=1;" vertex="1" parent="WIyWlLk6GJQsqaUBKTNV-1">
          <mxGeometry x="640" y="790" width="120" height="60" as="geometry" />
        </mxCell>
        <mxCell id="1qIj2vhqTRPH5F1boKcA-49" value="MEM_ID" style="ellipse;whiteSpace=wrap;html=1;" vertex="1" parent="WIyWlLk6GJQsqaUBKTNV-1">
          <mxGeometry x="420" y="820" width="120" height="80" as="geometry" />
        </mxCell>
        <mxCell id="1qIj2vhqTRPH5F1boKcA-50" value="ROLE" style="ellipse;whiteSpace=wrap;html=1;" vertex="1" parent="WIyWlLk6GJQsqaUBKTNV-1">
          <mxGeometry x="640" y="900" width="120" height="80" as="geometry" />
        </mxCell>
        <mxCell id="1qIj2vhqTRPH5F1boKcA-51" value="NAME" style="ellipse;whiteSpace=wrap;html=1;" vertex="1" parent="WIyWlLk6GJQsqaUBKTNV-1">
          <mxGeometry x="860" y="900" width="120" height="80" as="geometry" />
        </mxCell>
        <mxCell id="1qIj2vhqTRPH5F1boKcA-52" value="ADDRESS" style="ellipse;whiteSpace=wrap;html=1;" vertex="1" parent="WIyWlLk6GJQsqaUBKTNV-1">
          <mxGeometry x="520" y="940" width="120" height="80" as="geometry" />
        </mxCell>
        <mxCell id="1qIj2vhqTRPH5F1boKcA-53" value="PH NO" style="ellipse;whiteSpace=wrap;html=1;" vertex="1" parent="WIyWlLk6GJQsqaUBKTNV-1">
          <mxGeometry x="750" y="1020" width="120" height="80" as="geometry" />
        </mxCell>
        <mxCell id="1qIj2vhqTRPH5F1boKcA-56" style="edgeStyle=orthogonalEdgeStyle;rounded=0;orthogonalLoop=1;jettySize=auto;html=1;exitX=1;exitY=0.75;exitDx=0;exitDy=0;entryX=0.417;entryY=0;entryDx=0;entryDy=0;entryPerimeter=0;" edge="1" parent="WIyWlLk6GJQsqaUBKTNV-1" source="1qIj2vhqTRPH5F1boKcA-48" target="1qIj2vhqTRPH5F1boKcA-51">
          <mxGeometry relative="1" as="geometry" />
        </mxCell>
        <mxCell id="1qIj2vhqTRPH5F1boKcA-61" value="" style="edgeStyle=orthogonalEdgeStyle;rounded=0;orthogonalLoop=1;jettySize=auto;html=1;" edge="1" parent="WIyWlLk6GJQsqaUBKTNV-1" source="1qIj2vhqTRPH5F1boKcA-59" target="1qIj2vhqTRPH5F1boKcA-28">
          <mxGeometry relative="1" as="geometry" />
        </mxCell>
        <mxCell id="1qIj2vhqTRPH5F1boKcA-59" value="REFUNDABLE" style="rhombus;whiteSpace=wrap;html=1;" vertex="1" parent="WIyWlLk6GJQsqaUBKTNV-1">
          <mxGeometry x="2080" y="610" width="200" height="100" as="geometry" />
        </mxCell>
        <mxCell id="1qIj2vhqTRPH5F1boKcA-65" style="edgeStyle=orthogonalEdgeStyle;rounded=0;orthogonalLoop=1;jettySize=auto;html=1;entryX=0.25;entryY=1;entryDx=0;entryDy=0;endArrow=ERmany;endFill=0;" edge="1" parent="WIyWlLk6GJQsqaUBKTNV-1" source="1qIj2vhqTRPH5F1boKcA-63" target="1qIj2vhqTRPH5F1boKcA-21">
          <mxGeometry relative="1" as="geometry" />
        </mxCell>
        <mxCell id="1qIj2vhqTRPH5F1boKcA-66" style="edgeStyle=orthogonalEdgeStyle;rounded=0;orthogonalLoop=1;jettySize=auto;html=1;entryX=0;entryY=0.25;entryDx=0;entryDy=0;endArrow=ERmany;endFill=0;" edge="1" parent="WIyWlLk6GJQsqaUBKTNV-1" source="1qIj2vhqTRPH5F1boKcA-63" target="1qIj2vhqTRPH5F1boKcA-28">
          <mxGeometry relative="1" as="geometry">
            <Array as="points">
              <mxPoint x="1141" y="775" />
            </Array>
          </mxGeometry>
        </mxCell>
        <mxCell id="1qIj2vhqTRPH5F1boKcA-63" value="&lt;font style=&quot;font-size: 14px;&quot;&gt;MAKE&lt;/font&gt;" style="rhombus;whiteSpace=wrap;html=1;" vertex="1" parent="WIyWlLk6GJQsqaUBKTNV-1">
          <mxGeometry x="1041" y="580" width="200" height="100" as="geometry" />
        </mxCell>
        <mxCell id="1qIj2vhqTRPH5F1boKcA-69" style="edgeStyle=orthogonalEdgeStyle;rounded=0;orthogonalLoop=1;jettySize=auto;html=1;entryX=0.5;entryY=1;entryDx=0;entryDy=0;" edge="1" parent="WIyWlLk6GJQsqaUBKTNV-1" source="1qIj2vhqTRPH5F1boKcA-68" target="1qIj2vhqTRPH5F1boKcA-2">
          <mxGeometry relative="1" as="geometry" />
        </mxCell>
        <mxCell id="1qIj2vhqTRPH5F1boKcA-68" value="&lt;span style=&quot;font-size: 14px;&quot;&gt;HAVE&lt;/span&gt;" style="rhombus;whiteSpace=wrap;html=1;strokeWidth=5;" vertex="1" parent="WIyWlLk6GJQsqaUBKTNV-1">
          <mxGeometry x="1041" y="420" width="200" height="100" as="geometry" />
        </mxCell>
        <mxCell id="1qIj2vhqTRPH5F1boKcA-71" style="edgeStyle=orthogonalEdgeStyle;rounded=0;orthogonalLoop=1;jettySize=auto;html=1;entryX=0.12;entryY=0.983;entryDx=0;entryDy=0;entryPerimeter=0;" edge="1" parent="WIyWlLk6GJQsqaUBKTNV-1" source="1qIj2vhqTRPH5F1boKcA-68" target="1qIj2vhqTRPH5F1boKcA-21">
          <mxGeometry relative="1" as="geometry" />
        </mxCell>
        <mxCell id="1qIj2vhqTRPH5F1boKcA-73" value="PENDING" style="ellipse;whiteSpace=wrap;html=1;" vertex="1" parent="WIyWlLk6GJQsqaUBKTNV-1">
          <mxGeometry x="1720" y="1280" width="120" height="80" as="geometry" />
        </mxCell>
        <mxCell id="1qIj2vhqTRPH5F1boKcA-74" value="COMPLETED" style="ellipse;whiteSpace=wrap;html=1;" vertex="1" parent="WIyWlLk6GJQsqaUBKTNV-1">
          <mxGeometry x="2100" y="1270" width="120" height="80" as="geometry" />
        </mxCell>
        <mxCell id="1qIj2vhqTRPH5F1boKcA-77" value="PENDING" style="ellipse;whiteSpace=wrap;html=1;" vertex="1" parent="WIyWlLk6GJQsqaUBKTNV-1">
          <mxGeometry x="1121" y="1140" width="120" height="80" as="geometry" />
        </mxCell>
        <mxCell id="1qIj2vhqTRPH5F1boKcA-78" value="APPROVED" style="ellipse;whiteSpace=wrap;html=1;" vertex="1" parent="WIyWlLk6GJQsqaUBKTNV-1">
          <mxGeometry x="1910" y="1270" width="120" height="80" as="geometry" />
        </mxCell>
        <mxCell id="1qIj2vhqTRPH5F1boKcA-79" value="COMPLETED" style="ellipse;whiteSpace=wrap;html=1;" vertex="1" parent="WIyWlLk6GJQsqaUBKTNV-1">
          <mxGeometry x="1420" y="1140" width="120" height="80" as="geometry" />
        </mxCell>
        <mxCell id="1qIj2vhqTRPH5F1boKcA-90" style="edgeStyle=orthogonalEdgeStyle;rounded=0;orthogonalLoop=1;jettySize=auto;html=1;entryX=0.415;entryY=-0.001;entryDx=0;entryDy=0;entryPerimeter=0;" edge="1" parent="WIyWlLk6GJQsqaUBKTNV-1" source="1qIj2vhqTRPH5F1boKcA-34" target="1qIj2vhqTRPH5F1boKcA-79">
          <mxGeometry relative="1" as="geometry" />
        </mxCell>
      </root>
    </mxGraphModel>
  </diagram>
</mxfile>
